<svg width="353" height="130" viewBox="0 0 353 130" fill="none" xmlns="http://www.w3.org/2000/svg">
<path d="M122.609 32V2H2.60938V122H122.609V92" stroke="black" stroke-width="4"/>
<path d="M130.271 39.5881V36.5455H144.606V39.5881H139.263V54H135.615V39.5881H130.271ZM146.967 54V36.5455H153.854C155.172 36.5455 156.297 36.7812 157.229 37.2528C158.166 37.7187 158.879 38.3807 159.368 39.2386C159.862 40.0909 160.109 41.0937 160.109 42.2472C160.109 43.4062 159.859 44.4034 159.359 45.2386C158.859 46.0682 158.135 46.7045 157.186 47.1477C156.243 47.5909 155.101 47.8125 153.76 47.8125H149.149V44.8466H153.163C153.868 44.8466 154.453 44.75 154.919 44.5568C155.385 44.3636 155.731 44.0739 155.959 43.6875C156.192 43.3011 156.308 42.821 156.308 42.2472C156.308 41.6676 156.192 41.179 155.959 40.7812C155.731 40.3835 155.382 40.0824 154.91 39.8778C154.445 39.6676 153.856 39.5625 153.146 39.5625H150.658V54H146.967ZM156.393 46.0568L160.731 54H156.658L152.413 46.0568H156.393ZM165.726 54H161.771L167.797 36.5455H172.552L178.57 54H174.615L170.243 40.5341H170.106L165.726 54ZM165.479 47.1392H174.82V50.0199H165.479V47.1392ZM195.27 36.5455V54H192.082L184.489 43.0142H184.361V54H180.67V36.5455H183.909L191.443 47.5227H191.597V36.5455H195.27ZM207.788 41.5653C207.719 40.8778 207.427 40.3437 206.91 39.9631C206.393 39.5824 205.691 39.392 204.805 39.392C204.202 39.392 203.694 39.4773 203.279 39.6477C202.864 39.8125 202.546 40.0426 202.324 40.3381C202.109 40.6335 202.001 40.9688 202.001 41.3438C201.989 41.6562 202.055 41.929 202.197 42.1619C202.344 42.3949 202.546 42.5966 202.802 42.767C203.057 42.9318 203.353 43.0767 203.688 43.2017C204.023 43.321 204.381 43.4233 204.762 43.5085L206.33 43.8835C207.092 44.054 207.79 44.2812 208.427 44.5653C209.063 44.8494 209.614 45.1989 210.08 45.6136C210.546 46.0284 210.907 46.517 211.163 47.0795C211.424 47.642 211.557 48.2869 211.563 49.0142C211.557 50.0824 211.285 51.0085 210.745 51.7926C210.211 52.571 209.438 53.1761 208.427 53.608C207.421 54.0341 206.208 54.2472 204.788 54.2472C203.378 54.2472 202.151 54.0312 201.106 53.5994C200.066 53.1676 199.253 52.5284 198.668 51.6818C198.089 50.8295 197.785 49.7756 197.756 48.5199H201.327C201.367 49.1051 201.535 49.5937 201.83 49.9858C202.131 50.3722 202.532 50.6648 203.032 50.8636C203.538 51.0568 204.109 51.1534 204.745 51.1534C205.37 51.1534 205.913 51.0625 206.373 50.8807C206.839 50.6989 207.199 50.446 207.455 50.1222C207.711 49.7983 207.839 49.4261 207.839 49.0057C207.839 48.6136 207.722 48.2841 207.489 48.017C207.262 47.75 206.927 47.5227 206.484 47.3352C206.046 47.1477 205.509 46.9773 204.873 46.8239L202.972 46.3466C201.501 45.9886 200.339 45.429 199.486 44.6676C198.634 43.9062 198.211 42.8807 198.217 41.5909C198.211 40.5341 198.492 39.6108 199.06 38.821C199.634 38.0312 200.421 37.4148 201.421 36.9716C202.421 36.5284 203.557 36.3068 204.83 36.3068C206.126 36.3068 207.256 36.5284 208.222 36.9716C209.194 37.4148 209.949 38.0312 210.489 38.821C211.029 39.6108 211.307 40.5256 211.324 41.5653H207.788ZM214.045 54V36.5455H220.932C222.256 36.5455 223.383 36.7983 224.315 37.304C225.247 37.804 225.957 38.5 226.446 39.392C226.94 40.2784 227.187 41.3011 227.187 42.4602C227.187 43.6193 226.937 44.642 226.437 45.5284C225.937 46.4148 225.213 47.1051 224.264 47.5994C223.321 48.0937 222.179 48.3409 220.838 48.3409H216.449V45.3835H220.241C220.952 45.3835 221.537 45.2614 221.997 45.017C222.463 44.767 222.81 44.4233 223.037 43.9858C223.27 43.5426 223.386 43.0341 223.386 42.4602C223.386 41.8807 223.27 41.375 223.037 40.9432C222.81 40.5057 222.463 40.1676 221.997 39.929C221.531 39.6847 220.94 39.5625 220.224 39.5625H217.736V54H214.045ZM245.624 45.2727C245.624 47.1761 245.263 48.7955 244.542 50.1307C243.826 51.4659 242.849 52.4858 241.61 53.1903C240.377 53.8892 238.991 54.2386 237.451 54.2386C235.9 54.2386 234.508 53.8864 233.275 53.1818C232.042 52.4773 231.067 51.4574 230.351 50.1222C229.636 48.7869 229.278 47.1705 229.278 45.2727C229.278 43.3693 229.636 41.75 230.351 40.4148C231.067 39.0795 232.042 38.0625 233.275 37.3636C234.508 36.6591 235.9 36.3068 237.451 36.3068C238.991 36.3068 240.377 36.6591 241.61 37.3636C242.849 38.0625 243.826 39.0795 244.542 40.4148C245.263 41.75 245.624 43.3693 245.624 45.2727ZM241.883 45.2727C241.883 44.0398 241.698 43 241.329 42.1534C240.965 41.3068 240.451 40.6648 239.786 40.2273C239.121 39.7898 238.343 39.571 237.451 39.571C236.559 39.571 235.78 39.7898 235.116 40.2273C234.451 40.6648 233.934 41.3068 233.565 42.1534C233.201 43 233.019 44.0398 233.019 45.2727C233.019 46.5057 233.201 47.5455 233.565 48.392C233.934 49.2386 234.451 49.8807 235.116 50.3182C235.78 50.7557 236.559 50.9744 237.451 50.9744C238.343 50.9744 239.121 50.7557 239.786 50.3182C240.451 49.8807 240.965 49.2386 241.329 48.392C241.698 47.5455 241.883 46.5057 241.883 45.2727ZM248.358 54V36.5455H255.244C256.562 36.5455 257.687 36.7812 258.619 37.2528C259.557 37.7187 260.27 38.3807 260.758 39.2386C261.253 40.0909 261.5 41.0937 261.5 42.2472C261.5 43.4062 261.25 44.4034 260.75 45.2386C260.25 46.0682 259.525 46.7045 258.577 47.1477C257.633 47.5909 256.491 47.8125 255.15 47.8125H250.54V44.8466H254.554C255.258 44.8466 255.844 44.75 256.31 44.5568C256.775 44.3636 257.122 44.0739 257.349 43.6875C257.582 43.3011 257.699 42.821 257.699 42.2472C257.699 41.6676 257.582 41.179 257.349 40.7812C257.122 40.3835 256.773 40.0824 256.301 39.8778C255.835 39.6676 255.247 39.5625 254.537 39.5625H252.048V54H248.358ZM257.784 46.0568L262.122 54H258.048L253.804 46.0568H257.784ZM263.443 39.5881V36.5455H277.778V39.5881H272.435V54H268.787V39.5881H263.443ZM281.015 54H277.06L283.086 36.5455H287.842L293.859 54H289.904L285.532 40.5341H285.396L281.015 54ZM280.768 47.1392H290.109V50.0199H280.768V47.1392ZM293.162 39.5881V36.5455H307.497V39.5881H302.153V54H298.506V39.5881H293.162ZM313.548 36.5455V54H309.858V36.5455H313.548ZM332.624 45.2727C332.624 47.1761 332.263 48.7955 331.542 50.1307C330.826 51.4659 329.849 52.4858 328.61 53.1903C327.377 53.8892 325.991 54.2386 324.451 54.2386C322.9 54.2386 321.508 53.8864 320.275 53.1818C319.042 52.4773 318.067 51.4574 317.351 50.1222C316.636 48.7869 316.278 47.1705 316.278 45.2727C316.278 43.3693 316.636 41.75 317.351 40.4148C318.067 39.0795 319.042 38.0625 320.275 37.3636C321.508 36.6591 322.9 36.3068 324.451 36.3068C325.991 36.3068 327.377 36.6591 328.61 37.3636C329.849 38.0625 330.826 39.0795 331.542 40.4148C332.263 41.75 332.624 43.3693 332.624 45.2727ZM328.883 45.2727C328.883 44.0398 328.698 43 328.329 42.1534C327.965 41.3068 327.451 40.6648 326.786 40.2273C326.121 39.7898 325.343 39.571 324.451 39.571C323.559 39.571 322.78 39.7898 322.116 40.2273C321.451 40.6648 320.934 41.3068 320.565 42.1534C320.201 43 320.019 44.0398 320.019 45.2727C320.019 46.5057 320.201 47.5455 320.565 48.392C320.934 49.2386 321.451 49.8807 322.116 50.3182C322.78 50.7557 323.559 50.9744 324.451 50.9744C325.343 50.9744 326.121 50.7557 326.786 50.3182C327.451 49.8807 327.965 49.2386 328.329 48.392C328.698 47.5455 328.883 46.5057 328.883 45.2727ZM349.957 36.5455V54H346.77L339.176 43.0142H339.048V54H335.358V36.5455H338.597L346.131 47.5227H346.284V36.5455H349.957Z" fill="#3B82F6"/>
<path d="M130.936 70.5455H135.487L140.294 82.2727H140.498L145.305 70.5455H149.856V88H146.277V76.6392H146.132L141.615 87.9148H139.177L134.66 76.5966H134.516V88H130.936V70.5455ZM155.905 88H151.951L157.976 70.5455H162.732L168.749 88H164.795L160.422 74.5341H160.286L155.905 88ZM155.658 81.1392H164.999V84.0199H155.658V81.1392ZM185.449 70.5455V88H182.262L174.668 77.0142H174.54V88H170.85V70.5455H174.089L181.623 81.5227H181.776V70.5455H185.449ZM191.507 88H187.552L193.578 70.5455H198.334L204.351 88H200.396L196.024 74.5341H195.888L191.507 88ZM191.26 81.1392H200.601V84.0199H191.26V81.1392ZM217.205 76.1875C217.086 75.7727 216.918 75.4062 216.702 75.0881C216.486 74.7642 216.222 74.4915 215.91 74.2699C215.603 74.0426 215.251 73.8693 214.853 73.75C214.461 73.6307 214.026 73.571 213.549 73.571C212.657 73.571 211.873 73.7926 211.197 74.2358C210.526 74.679 210.003 75.3239 209.628 76.1705C209.253 77.0114 209.066 78.0398 209.066 79.2557C209.066 80.4716 209.251 81.5057 209.62 82.358C209.989 83.2102 210.512 83.8608 211.188 84.3097C211.864 84.7528 212.663 84.9744 213.583 84.9744C214.418 84.9744 215.131 84.8267 215.722 84.5312C216.319 84.2301 216.773 83.8068 217.086 83.2614C217.404 82.7159 217.563 82.071 217.563 81.3267L218.313 81.4375H213.813V78.6591H221.117V80.858C221.117 82.392 220.793 83.7102 220.146 84.8125C219.498 85.9091 218.606 86.7557 217.469 87.3523C216.333 87.9432 215.032 88.2386 213.566 88.2386C211.93 88.2386 210.492 87.8778 209.253 87.1562C208.015 86.429 207.049 85.3977 206.356 84.0625C205.668 82.7216 205.324 81.1307 205.324 79.2898C205.324 77.875 205.529 76.6136 205.938 75.5057C206.353 74.392 206.932 73.4489 207.677 72.6761C208.421 71.9034 209.288 71.3153 210.276 70.9119C211.265 70.5085 212.336 70.3068 213.489 70.3068C214.478 70.3068 215.398 70.4517 216.251 70.7415C217.103 71.0256 217.859 71.429 218.518 71.9517C219.182 72.4744 219.725 73.0966 220.146 73.8182C220.566 74.5341 220.836 75.3239 220.955 76.1875H217.205ZM223.889 88V70.5455H235.65V73.5881H227.579V77.7472H235.045V80.7898H227.579V84.9574H235.685V88H223.889ZM238.584 70.5455H243.136L247.942 82.2727H248.147L252.954 70.5455H257.505V88H253.925V76.6392H253.78L249.263 87.9148H246.826L242.309 76.5966H242.164V88H238.584V70.5455ZM260.545 88V70.5455H272.307V73.5881H264.236V77.7472H271.702V80.7898H264.236V84.9574H272.341V88H260.545ZM289.84 70.5455V88H286.653L279.059 77.0142H278.931V88H275.241V70.5455H278.479L286.013 81.5227H286.167V70.5455H289.84ZM292.224 73.5881V70.5455H306.56V73.5881H301.216V88H297.568V73.5881H292.224ZM140.405 109.565C140.337 108.878 140.044 108.344 139.527 107.963C139.01 107.582 138.308 107.392 137.422 107.392C136.82 107.392 136.311 107.477 135.896 107.648C135.481 107.812 135.163 108.043 134.942 108.338C134.726 108.634 134.618 108.969 134.618 109.344C134.606 109.656 134.672 109.929 134.814 110.162C134.962 110.395 135.163 110.597 135.419 110.767C135.675 110.932 135.97 111.077 136.305 111.202C136.641 111.321 136.998 111.423 137.379 111.509L138.947 111.884C139.709 112.054 140.408 112.281 141.044 112.565C141.68 112.849 142.231 113.199 142.697 113.614C143.163 114.028 143.524 114.517 143.78 115.08C144.041 115.642 144.175 116.287 144.18 117.014C144.175 118.082 143.902 119.009 143.362 119.793C142.828 120.571 142.055 121.176 141.044 121.608C140.038 122.034 138.825 122.247 137.405 122.247C135.996 122.247 134.768 122.031 133.723 121.599C132.683 121.168 131.871 120.528 131.285 119.682C130.706 118.83 130.402 117.776 130.373 116.52H133.945C133.984 117.105 134.152 117.594 134.447 117.986C134.748 118.372 135.149 118.665 135.649 118.864C136.155 119.057 136.726 119.153 137.362 119.153C137.987 119.153 138.53 119.062 138.99 118.881C139.456 118.699 139.817 118.446 140.072 118.122C140.328 117.798 140.456 117.426 140.456 117.006C140.456 116.614 140.339 116.284 140.106 116.017C139.879 115.75 139.544 115.523 139.101 115.335C138.663 115.148 138.126 114.977 137.49 114.824L135.589 114.347C134.118 113.989 132.956 113.429 132.104 112.668C131.251 111.906 130.828 110.881 130.834 109.591C130.828 108.534 131.109 107.611 131.677 106.821C132.251 106.031 133.038 105.415 134.038 104.972C135.038 104.528 136.175 104.307 137.447 104.307C138.743 104.307 139.873 104.528 140.839 104.972C141.811 105.415 142.567 106.031 143.106 106.821C143.646 107.611 143.925 108.526 143.942 109.565H140.405ZM145.64 104.545H149.773L153.753 112.062H153.924L157.904 104.545H162.038L155.671 115.83V122H152.006V115.83L145.64 104.545ZM173.522 109.565C173.454 108.878 173.161 108.344 172.644 107.963C172.127 107.582 171.425 107.392 170.539 107.392C169.937 107.392 169.428 107.477 169.013 107.648C168.599 107.812 168.28 108.043 168.059 108.338C167.843 108.634 167.735 108.969 167.735 109.344C167.724 109.656 167.789 109.929 167.931 110.162C168.079 110.395 168.28 110.597 168.536 110.767C168.792 110.932 169.087 111.077 169.422 111.202C169.758 111.321 170.116 111.423 170.496 111.509L172.065 111.884C172.826 112.054 173.525 112.281 174.161 112.565C174.797 112.849 175.349 113.199 175.815 113.614C176.28 114.028 176.641 114.517 176.897 115.08C177.158 115.642 177.292 116.287 177.297 117.014C177.292 118.082 177.019 119.009 176.479 119.793C175.945 120.571 175.172 121.176 174.161 121.608C173.155 122.034 171.942 122.247 170.522 122.247C169.113 122.247 167.886 122.031 166.84 121.599C165.8 121.168 164.988 120.528 164.403 119.682C163.823 118.83 163.519 117.776 163.491 116.52H167.062C167.101 117.105 167.269 117.594 167.565 117.986C167.866 118.372 168.266 118.665 168.766 118.864C169.272 119.057 169.843 119.153 170.479 119.153C171.104 119.153 171.647 119.062 172.107 118.881C172.573 118.699 172.934 118.446 173.19 118.122C173.445 117.798 173.573 117.426 173.573 117.006C173.573 116.614 173.457 116.284 173.224 116.017C172.996 115.75 172.661 115.523 172.218 115.335C171.78 115.148 171.244 114.977 170.607 114.824L168.707 114.347C167.235 113.989 166.073 113.429 165.221 112.668C164.369 111.906 163.945 110.881 163.951 109.591C163.945 108.534 164.226 107.611 164.795 106.821C165.369 106.031 166.155 105.415 167.155 104.972C168.155 104.528 169.292 104.307 170.565 104.307C171.86 104.307 172.991 104.528 173.957 104.972C174.928 105.415 175.684 106.031 176.224 106.821C176.763 107.611 177.042 108.526 177.059 109.565H173.522ZM179.115 107.588V104.545H193.45V107.588H188.106V122H184.459V107.588H179.115ZM195.811 122V104.545H207.572V107.588H199.501V111.747H206.967V114.79H199.501V118.957H207.606V122H195.811ZM210.506 104.545H215.057L219.864 116.273H220.069L224.876 104.545H229.427V122H225.847V110.639H225.702L221.185 121.915H218.748L214.231 110.597H214.086V122H210.506V104.545Z" fill="black"/>
<path d="M43.1094 68C44.8384 67.9996 46.5144 68.5967 47.8537 69.69C49.1931 70.7834 50.1136 72.306 50.4594 74H71.6094V44H38.6094C37.0181 44 35.492 44.6321 34.3667 45.7574C33.2415 46.8826 32.6094 48.4087 32.6094 50V74H35.7594C36.1052 72.306 37.0256 70.7834 38.365 69.69C39.7044 68.5967 41.3804 67.9996 43.1094 68ZM43.1094 83C41.3804 83.0004 39.7044 82.4033 38.365 81.31C37.0256 80.2166 36.1052 78.694 35.7594 77H29.6094V50C29.6094 47.6131 30.5576 45.3239 32.2454 43.636C33.9332 41.9482 36.2224 41 38.6094 41H71.6094C72.405 41 73.1681 41.3161 73.7307 41.8787C74.2933 42.4413 74.6094 43.2044 74.6094 44V50H83.6094L92.6094 62V77H86.4594C86.1151 78.6954 85.1953 80.2197 83.8558 81.3146C82.5162 82.4094 80.8394 83.0075 79.1094 83.0075C77.3793 83.0075 75.7025 82.4094 74.363 81.3146C73.0235 80.2197 72.1036 78.6954 71.7594 77H50.4594C50.1136 78.694 49.1931 80.2166 47.8537 81.31C46.5144 82.4033 44.8384 83.0004 43.1094 83ZM43.1094 71C41.9159 71 40.7713 71.4741 39.9274 72.318C39.0835 73.1619 38.6094 74.3065 38.6094 75.5C38.6094 76.6935 39.0835 77.8381 39.9274 78.682C40.7713 79.5259 41.9159 80 43.1094 80C44.3028 80 45.4474 79.5259 46.2914 78.682C47.1353 77.8381 47.6094 76.6935 47.6094 75.5C47.6094 74.3065 47.1353 73.1619 46.2914 72.318C45.4474 71.4741 44.3028 71 43.1094 71ZM79.1094 68C80.8384 67.9996 82.5144 68.5967 83.8537 69.69C85.1931 70.7834 86.1136 72.306 86.4594 74H89.6094V62.96L88.8894 62H74.6094V69.5C75.8694 68.57 77.4294 68 79.1094 68ZM79.1094 71C77.9159 71 76.7713 71.4741 75.9274 72.318C75.0835 73.1619 74.6094 74.3065 74.6094 75.5C74.6094 76.6935 75.0835 77.8381 75.9274 78.682C76.7713 79.5259 77.9159 80 79.1094 80C80.3028 80 81.4474 79.5259 82.2914 78.682C83.1353 77.8381 83.6094 76.6935 83.6094 75.5C83.6094 74.3065 83.1353 73.1619 82.2914 72.318C81.4474 71.4741 80.3028 71 79.1094 71ZM74.6094 53V59H86.6094L82.1094 53H74.6094Z" fill="black"/>
</svg>
