<svg width="242" height="134" viewBox="0 0 242 134" fill="none" xmlns="http://www.w3.org/2000/svg">
<path d="M132.609 67V2H2.60938V132H132.609V120.903" stroke="black" stroke-width="4"/>
<path d="M38.3906 80.7891V78H51.5312V80.7891H46.6328V94H43.2891V80.7891H38.3906ZM53.6953 94V78H60.0078C61.2161 78 62.2474 78.2161 63.1016 78.6484C63.9609 79.0755 64.6146 79.6823 65.0625 80.4688C65.5156 81.25 65.7422 82.1693 65.7422 83.2266C65.7422 84.2891 65.513 85.2031 65.0547 85.9687C64.5964 86.7292 63.9323 87.3125 63.0625 87.7187C62.1979 88.125 61.151 88.3281 59.9219 88.3281H55.6953V85.6094H59.375C60.0208 85.6094 60.5573 85.5208 60.9844 85.3438C61.4115 85.1667 61.7292 84.901 61.9375 84.5469C62.151 84.1927 62.2578 83.7526 62.2578 83.2266C62.2578 82.6953 62.151 82.2474 61.9375 81.8828C61.7292 81.5182 61.4089 81.2422 60.9766 81.0547C60.5495 80.862 60.0104 80.7656 59.3594 80.7656H57.0781V94H53.6953ZM62.3359 86.7188L66.3125 94H62.5781L58.6875 86.7188H62.3359ZM70.8906 94H67.2656L72.7891 78H77.1484L82.6641 94H79.0391L75.0313 81.6562H74.9062L70.8906 94ZM70.6641 87.7109H79.2266V90.3516H70.6641V87.7109ZM97.9727 78V94H95.0508L88.0898 83.9297H87.9727V94H84.5898V78H87.5586L94.4648 88.0625H94.6055V78H97.9727ZM109.447 82.6016C109.385 81.9714 109.117 81.4818 108.643 81.1328C108.169 80.7839 107.525 80.6094 106.713 80.6094C106.161 80.6094 105.695 80.6875 105.314 80.8437C104.934 80.9948 104.643 81.2057 104.439 81.4766C104.242 81.7474 104.143 82.0547 104.143 82.3984C104.132 82.6849 104.192 82.9349 104.322 83.1484C104.458 83.362 104.643 83.5469 104.877 83.7031C105.111 83.8542 105.382 83.987 105.689 84.1016C105.997 84.2109 106.325 84.3047 106.674 84.3828L108.111 84.7266C108.809 84.8828 109.45 85.0911 110.033 85.3516C110.617 85.612 111.122 85.9323 111.549 86.3125C111.976 86.6927 112.307 87.1406 112.541 87.6562C112.781 88.1719 112.903 88.763 112.908 89.4297C112.903 90.4089 112.653 91.2578 112.158 91.9766C111.669 92.6901 110.96 93.2448 110.033 93.6406C109.111 94.0312 107.999 94.2266 106.697 94.2266C105.406 94.2266 104.281 94.0286 103.322 93.6328C102.369 93.237 101.624 92.651 101.088 91.875C100.557 91.0937 100.278 90.1276 100.252 88.9766H103.525C103.562 89.513 103.715 89.9609 103.986 90.3203C104.262 90.6745 104.63 90.9427 105.088 91.125C105.551 91.3021 106.075 91.3906 106.658 91.3906C107.231 91.3906 107.729 91.3073 108.15 91.1406C108.577 90.974 108.908 90.7422 109.143 90.4453C109.377 90.1484 109.494 89.8073 109.494 89.4219C109.494 89.0625 109.387 88.7604 109.174 88.5156C108.965 88.2708 108.658 88.0625 108.252 87.8906C107.851 87.7187 107.359 87.5625 106.775 87.4219L105.033 86.9844C103.684 86.6562 102.619 86.1432 101.838 85.4453C101.057 84.7474 100.669 83.8073 100.674 82.625C100.669 81.6562 100.926 80.8099 101.447 80.0859C101.973 79.362 102.695 78.7969 103.611 78.3906C104.528 77.9844 105.57 77.7812 106.736 77.7812C107.924 77.7812 108.96 77.9844 109.846 78.3906C110.736 78.7969 111.429 79.362 111.924 80.0859C112.419 80.8099 112.674 81.6484 112.689 82.6016H109.447ZM115.184 94V78H121.496C122.71 78 123.743 78.2318 124.598 78.6953C125.452 79.1536 126.103 79.7917 126.551 80.6094C127.004 81.4219 127.23 82.3594 127.23 83.4219C127.23 84.4844 127.001 85.4219 126.543 86.2344C126.085 87.0469 125.421 87.6797 124.551 88.1328C123.686 88.5859 122.639 88.8125 121.41 88.8125H117.387V86.1016H120.863C121.514 86.1016 122.051 85.9896 122.473 85.7656C122.9 85.5365 123.217 85.2214 123.426 84.8203C123.639 84.4141 123.746 83.9479 123.746 83.4219C123.746 82.8906 123.639 82.4271 123.426 82.0312C123.217 81.6302 122.9 81.3203 122.473 81.1016C122.046 80.8776 121.504 80.7656 120.848 80.7656H118.566V94H115.184ZM144.131 86C144.131 87.7448 143.8 89.2292 143.139 90.4531C142.482 91.6771 141.587 92.612 140.451 93.2578C139.321 93.8984 138.05 94.2187 136.639 94.2187C135.217 94.2187 133.941 93.8958 132.811 93.25C131.68 92.6042 130.787 91.6693 130.131 90.4453C129.475 89.2214 129.146 87.7396 129.146 86C129.146 84.2552 129.475 82.7708 130.131 81.5469C130.787 80.3229 131.68 79.3906 132.811 78.75C133.941 78.1042 135.217 77.7812 136.639 77.7812C138.05 77.7812 139.321 78.1042 140.451 78.75C141.587 79.3906 142.482 80.3229 143.139 81.5469C143.8 82.7708 144.131 84.2552 144.131 86ZM140.701 86C140.701 84.8698 140.532 83.9167 140.193 83.1406C139.86 82.3646 139.389 81.776 138.779 81.375C138.17 80.974 137.456 80.7734 136.639 80.7734C135.821 80.7734 135.107 80.974 134.498 81.375C133.889 81.776 133.415 82.3646 133.076 83.1406C132.743 83.9167 132.576 84.8698 132.576 86C132.576 87.1302 132.743 88.0833 133.076 88.8594C133.415 89.6354 133.889 90.224 134.498 90.625C135.107 91.026 135.821 91.2266 136.639 91.2266C137.456 91.2266 138.17 91.026 138.779 90.625C139.389 90.224 139.86 89.6354 140.193 88.8594C140.532 88.0833 140.701 87.1302 140.701 86ZM146.637 94V78H152.949C154.158 78 155.189 78.2161 156.043 78.6484C156.902 79.0755 157.556 79.6823 158.004 80.4688C158.457 81.25 158.684 82.1693 158.684 83.2266C158.684 84.2891 158.454 85.2031 157.996 85.9687C157.538 86.7292 156.874 87.3125 156.004 87.7187C155.139 88.125 154.092 88.3281 152.863 88.3281H148.637V85.6094H152.316C152.962 85.6094 153.499 85.5208 153.926 85.3438C154.353 85.1667 154.671 84.901 154.879 84.5469C155.092 84.1927 155.199 83.7526 155.199 83.2266C155.199 82.6953 155.092 82.2474 154.879 81.8828C154.671 81.5182 154.35 81.2422 153.918 81.0547C153.491 80.862 152.952 80.7656 152.301 80.7656H150.02V94H146.637ZM155.277 86.7188L159.254 94H155.52L151.629 86.7188H155.277ZM160.465 80.7891V78H173.605V80.7891H168.707V94H165.363V80.7891H160.465ZM176.572 94H172.947L178.471 78H182.83L188.346 94H184.721L180.713 81.6562H180.588L176.572 94ZM176.346 87.7109H184.908V90.3516H176.346V87.7109ZM187.707 80.7891V78H200.848V80.7891H195.949V94H192.605V80.7891H187.707ZM206.395 78V94H203.012V78H206.395ZM223.881 86C223.881 87.7448 223.55 89.2292 222.889 90.4531C222.232 91.6771 221.337 92.612 220.201 93.2578C219.071 93.8984 217.8 94.2187 216.389 94.2187C214.967 94.2187 213.691 93.8958 212.561 93.25C211.43 92.6042 210.537 91.6693 209.881 90.4453C209.225 89.2214 208.896 87.7396 208.896 86C208.896 84.2552 209.225 82.7708 209.881 81.5469C210.537 80.3229 211.43 79.3906 212.561 78.75C213.691 78.1042 214.967 77.7812 216.389 77.7812C217.8 77.7812 219.071 78.1042 220.201 78.75C221.337 79.3906 222.232 80.3229 222.889 81.5469C223.55 82.7708 223.881 84.2552 223.881 86ZM220.451 86C220.451 84.8698 220.282 83.9167 219.943 83.1406C219.61 82.3646 219.139 81.776 218.529 81.375C217.92 80.974 217.206 80.7734 216.389 80.7734C215.571 80.7734 214.857 80.974 214.248 81.375C213.639 81.776 213.165 82.3646 212.826 83.1406C212.493 83.9167 212.326 84.8698 212.326 86C212.326 87.1302 212.493 88.0833 212.826 88.8594C213.165 89.6354 213.639 90.224 214.248 90.625C214.857 91.026 215.571 91.2266 216.389 91.2266C217.206 91.2266 217.92 91.026 218.529 90.625C219.139 90.224 219.61 89.6354 219.943 88.8594C220.282 88.0833 220.451 87.1302 220.451 86ZM239.77 78V94H236.848L229.887 83.9297H229.77V94H226.387V78H229.355L236.262 88.0625H236.402V78H239.77Z" fill="#3B82F6"/>
<path d="M38.728 102.818H40.5923L43.8338 110.733H43.9531L47.1946 102.818H49.0589V113H47.5973V105.632H47.5028L44.5 112.985H43.2869L40.2841 105.627H40.1896V113H38.728V102.818ZM52.1525 113H50.5218L54.1859 102.818H55.9608L59.6248 113H57.9941L55.1156 104.668H55.036L52.1525 113ZM52.426 109.013H57.7157V110.305H52.426V109.013ZM69.3132 102.818V113H67.9013L62.7259 105.533H62.6314V113H61.0952V102.818H62.517L67.6974 110.295H67.7919V102.818H69.3132ZM72.4142 113H70.7836L74.4476 102.818H76.2225L79.8865 113H78.2559L75.3773 104.668H75.2978L72.4142 113ZM72.6877 109.013H77.9775V110.305H72.6877V109.013ZM87.769 106.035C87.6729 105.733 87.5436 105.463 87.3812 105.224C87.2221 104.982 87.0315 104.777 86.8095 104.608C86.5874 104.436 86.3339 104.305 86.0488 104.215C85.7671 104.126 85.4572 104.081 85.1191 104.081C84.5458 104.081 84.0287 104.228 83.568 104.523C83.1073 104.818 82.7427 105.251 82.4743 105.821C82.2091 106.388 82.0765 107.082 82.0765 107.904C82.0765 108.729 82.2108 109.427 82.4792 109.997C82.7477 110.567 83.1156 111 83.5829 111.295C84.0502 111.59 84.5822 111.737 85.1788 111.737C85.7323 111.737 86.2145 111.625 86.6255 111.399C87.0398 111.174 87.3597 110.856 87.585 110.445C87.8137 110.03 87.9281 109.543 87.9281 108.983L88.3258 109.058H85.4125V107.79H89.4146V108.948C89.4146 109.803 89.2323 110.546 88.8677 111.175C88.5065 111.802 88.006 112.286 87.3663 112.627C86.7299 112.969 86.0008 113.139 85.1788 113.139C84.2574 113.139 83.4487 112.927 82.7527 112.503C82.06 112.079 81.5197 111.477 81.1319 110.698C80.7441 109.916 80.5502 108.988 80.5502 107.914C80.5502 107.102 80.6629 106.373 80.8883 105.727C81.1137 105.08 81.4302 104.532 81.8379 104.081C82.2489 103.627 82.7311 103.281 83.2846 103.042C83.8414 102.8 84.4496 102.679 85.1092 102.679C85.6594 102.679 86.1715 102.76 86.6454 102.923C87.1227 103.085 87.5469 103.315 87.9181 103.614C88.2927 103.912 88.6026 104.267 88.8478 104.678C89.0931 105.085 89.2588 105.538 89.345 106.035H87.769ZM91.3647 113V102.818H97.7482V104.141H92.9009V107.243H97.4151V108.56H92.9009V111.678H97.8079V113H91.3647ZM99.8002 102.818H101.665L104.906 110.733H105.025L108.267 102.818H110.131V113H108.67V105.632H108.575L105.572 112.985H104.359L101.356 105.627H101.262V113H99.8002V102.818ZM112.365 113V102.818H118.748V104.141H113.901V107.243H118.415V108.56H113.901V111.678H118.808V113H112.365ZM129.018 102.818V113H127.606L122.431 105.533H122.336V113H120.8V102.818H122.222L127.403 110.295H127.497V102.818H129.018ZM130.757 104.141V102.818H138.637V104.141H135.46V113H133.929V104.141H130.757ZM149.637 105.493C149.584 105.022 149.365 104.658 148.98 104.399C148.596 104.137 148.112 104.006 147.529 104.006C147.111 104.006 146.75 104.073 146.445 104.205C146.14 104.335 145.903 104.513 145.734 104.742C145.568 104.968 145.485 105.224 145.485 105.513C145.485 105.755 145.542 105.964 145.654 106.139C145.77 106.315 145.921 106.462 146.107 106.582C146.296 106.698 146.498 106.795 146.713 106.875C146.929 106.951 147.136 107.014 147.335 107.064L148.329 107.322C148.654 107.402 148.987 107.51 149.328 107.646C149.67 107.781 149.986 107.96 150.278 108.183C150.57 108.405 150.805 108.68 150.984 109.008C151.166 109.336 151.257 109.729 151.257 110.186C151.257 110.763 151.108 111.275 150.81 111.722C150.515 112.17 150.086 112.523 149.522 112.781C148.962 113.04 148.284 113.169 147.489 113.169C146.727 113.169 146.067 113.048 145.51 112.806C144.953 112.564 144.518 112.221 144.203 111.777C143.888 111.33 143.714 110.799 143.681 110.186H145.222C145.252 110.554 145.371 110.861 145.58 111.106C145.792 111.348 146.062 111.528 146.39 111.648C146.722 111.764 147.085 111.822 147.479 111.822C147.913 111.822 148.299 111.754 148.637 111.618C148.979 111.479 149.247 111.286 149.443 111.041C149.638 110.793 149.736 110.503 149.736 110.171C149.736 109.87 149.65 109.623 149.478 109.43C149.309 109.238 149.078 109.079 148.787 108.953C148.498 108.827 148.172 108.716 147.807 108.62L146.604 108.292C145.789 108.07 145.142 107.743 144.665 107.312C144.191 106.882 143.954 106.312 143.954 105.602C143.954 105.016 144.113 104.504 144.431 104.066C144.75 103.629 145.181 103.289 145.724 103.047C146.268 102.802 146.881 102.679 147.564 102.679C148.253 102.679 148.861 102.8 149.388 103.042C149.918 103.284 150.336 103.617 150.641 104.041C150.946 104.462 151.105 104.946 151.118 105.493H149.637ZM152.308 102.818H154.053L156.713 107.447H156.822L159.482 102.818H161.227L157.533 109.003V113H156.002V109.003L152.308 102.818ZM168.23 105.493C168.177 105.022 167.959 104.658 167.574 104.399C167.19 104.137 166.706 104.006 166.123 104.006C165.705 104.006 165.344 104.073 165.039 104.205C164.734 104.335 164.497 104.513 164.328 104.742C164.162 104.968 164.079 105.224 164.079 105.513C164.079 105.755 164.136 105.964 164.248 106.139C164.364 106.315 164.515 106.462 164.701 106.582C164.89 106.698 165.092 106.795 165.307 106.875C165.523 106.951 165.73 107.014 165.929 107.064L166.923 107.322C167.248 107.402 167.581 107.51 167.922 107.646C168.264 107.781 168.58 107.96 168.872 108.183C169.163 108.405 169.399 108.68 169.578 109.008C169.76 109.336 169.851 109.729 169.851 110.186C169.851 110.763 169.702 111.275 169.404 111.722C169.109 112.17 168.68 112.523 168.116 112.781C167.556 113.04 166.878 113.169 166.083 113.169C165.32 113.169 164.661 113.048 164.104 112.806C163.547 112.564 163.111 112.221 162.797 111.777C162.482 111.33 162.308 110.799 162.275 110.186H163.816C163.846 110.554 163.965 110.861 164.174 111.106C164.386 111.348 164.656 111.528 164.984 111.648C165.315 111.764 165.678 111.822 166.073 111.822C166.507 111.822 166.893 111.754 167.231 111.618C167.573 111.479 167.841 111.286 168.037 111.041C168.232 110.793 168.33 110.503 168.33 110.171C168.33 109.87 168.244 109.623 168.071 109.43C167.902 109.238 167.672 109.079 167.38 108.953C167.092 108.827 166.766 108.716 166.401 108.62L165.198 108.292C164.382 108.07 163.736 107.743 163.259 107.312C162.785 106.882 162.548 106.312 162.548 105.602C162.548 105.016 162.707 104.504 163.025 104.066C163.343 103.629 163.774 103.289 164.318 103.047C164.861 102.802 165.475 102.679 166.157 102.679C166.847 102.679 167.455 102.8 167.982 103.042C168.512 103.284 168.93 103.617 169.235 104.041C169.54 104.462 169.699 104.946 169.712 105.493H168.23ZM171.185 104.141V102.818H179.065V104.141H175.888V113H174.357V104.141H171.185ZM180.806 113V102.818H187.19V104.141H182.342V107.243H186.857V108.56H182.342V111.678H187.249V113H180.806ZM189.242 102.818H191.106L194.347 110.733H194.467L197.708 102.818H199.573V113H198.111V105.632H198.017L195.014 112.985H193.801L190.798 105.627H190.703V113H189.242V102.818Z" fill="black"/>
<path d="M82.6094 58.25C81.6148 58.25 80.661 57.8549 79.9577 57.1516C79.2545 56.4484 78.8594 55.4946 78.8594 54.5C78.8594 53.5054 79.2545 52.5516 79.9577 51.8483C80.661 51.1451 81.6148 50.75 82.6094 50.75C83.6039 50.75 84.5578 51.1451 85.261 51.8483C85.9643 52.5516 86.3594 53.5054 86.3594 54.5C86.3594 55.4946 85.9643 56.4484 85.261 57.1516C84.5578 57.8549 83.6039 58.25 82.6094 58.25ZM86.3594 35.75L91.2594 42H80.1094V35.75M52.6094 58.25C51.6148 58.25 50.661 57.8549 49.9577 57.1516C49.2545 56.4484 48.8594 55.4946 48.8594 54.5C48.8594 53.5054 49.2545 52.5516 49.9577 51.8483C50.661 51.1451 51.6148 50.75 52.6094 50.75C53.6039 50.75 54.5578 51.1451 55.261 51.8483C55.9643 52.5516 56.3594 53.5054 56.3594 54.5C56.3594 55.4946 55.9643 56.4484 55.261 57.1516C54.5578 57.8549 53.6039 58.25 52.6094 58.25ZM87.6094 32H80.1094V22H45.1094C42.3344 22 40.1094 24.225 40.1094 27V54.5H45.1094C45.1094 56.4891 45.8996 58.3968 47.3061 59.8033C48.7126 61.2098 50.6203 62 52.6094 62C54.5985 62 56.5062 61.2098 57.9127 59.8033C59.3192 58.3968 60.1094 56.4891 60.1094 54.5H75.1094C75.1094 56.4891 75.8996 58.3968 77.3061 59.8033C78.7126 61.2098 80.6203 62 82.6094 62C84.5985 62 86.5062 61.2098 87.9127 59.8033C89.3192 58.3968 90.1094 56.4891 90.1094 54.5H95.1094V42L87.6094 32Z" fill="black"/>
</svg>
